<svg width="10" height="17" viewBox="0 0 10 17" fill="none" xmlns="http://www.w3.org/2000/svg">
<path d="M8.78315 0.211465L6.78405 0.208252C4.53812 0.208252 3.08671 1.69991 3.08671 4.00866V5.7609H1.0767C0.903011 5.7609 0.76236 5.90195 0.76236 6.07594V8.61474C0.76236 8.78872 0.903171 8.92962 1.0767 8.92962H3.08671V15.3358C3.08671 15.5098 3.22736 15.6507 3.40105 15.6507H6.02354C6.19723 15.6507 6.33788 15.5096 6.33788 15.3358V8.92962H8.68805C8.86174 8.92962 9.00239 8.78872 9.00239 8.61474L9.00335 6.07594C9.00335 5.9924 8.97015 5.91239 8.91129 5.85327C8.85244 5.79415 8.77225 5.7609 8.68885 5.7609H6.33788V4.2755C6.33788 3.56156 6.50772 3.19913 7.43614 3.19913L8.78283 3.19865C8.95636 3.19865 9.09701 3.05759 9.09701 2.88377V0.526345C9.09701 0.352679 8.95652 0.211786 8.78315 0.211465Z" fill="#666666"/>
</svg>
